
        <svg xmlns="http://www.w3.org/2000/svg" xmlns:xlink="http://www.w3.org/1999/xlink" version="1.1" width="3162.1621621621625" 
        height="879.4549013956649" viewBox="0 0 3162.1621621621625 879.4549013956649">
			
			<g transform="scale(8.108108108108109) translate(10, 10)">
				<defs id="SvgjsDefs1001"></defs><g id="SvgjsG1007" featureKey="HKaMnE-0" transform="matrix(0.032556932106873854,0,0,0.032556932106873854,6.136396579270725,32.13659009035562)" fill="#3e8dc8"><path xmlns="http://www.w3.org/2000/svg" d="M893.3,160.7c0,88.7-72,160.9-160.7,161.2v-0.5h-0.5v-0.5h-0.5v0.5h0.5v0.5h0.5v0h-0.5c-88.9,0-161.2-72.3-161.2-161.2  c0-88.9,72.3-161.2,161.2-161.2S893.3,71.8,893.3,160.7z"></path><circle xmlns="http://www.w3.org/2000/svg" cx="160.7" cy="160.7" r="72"></circle><ellipse xmlns="http://www.w3.org/2000/svg" transform="matrix(0.7071 -0.7071 0.7071 0.7071 4.0354 331.1821)" cx="401.8" cy="160.7" rx="116.6" ry="116.6"></ellipse><rect xmlns="http://www.w3.org/2000/svg" x="731.6" y="320.9" width="0.5" height="0.5"></rect><polygon xmlns="http://www.w3.org/2000/svg" points="732.1,321.4 732.1,320.9 731.6,320.9 731.6,321.4 732.1,321.4 732.1,321.9 732.6,321.9 732.6,321.4 "></polygon><circle xmlns="http://www.w3.org/2000/svg" cx="1062.5" cy="160.7" r="116.6"></circle><ellipse xmlns="http://www.w3.org/2000/svg" transform="matrix(0.9871 -0.1602 0.1602 0.9871 -8.9104 210.8861)" cx="1303.6" cy="160.7" rx="71.9" ry="71.9"></ellipse><ellipse xmlns="http://www.w3.org/2000/svg" transform="matrix(0.7071 -0.7071 0.7071 0.7071 -237.0375 231.3207)" cx="160.7" cy="401.8" rx="116.6" ry="116.6"></ellipse><ellipse xmlns="http://www.w3.org/2000/svg" transform="matrix(0.2298 -0.9732 0.9732 0.2298 -90.6223 778.3138)" cx="446.4" cy="446.4" rx="71.9" ry="71.9"></ellipse><ellipse xmlns="http://www.w3.org/2000/svg" transform="matrix(0.7071 -0.7071 0.7071 0.7071 -132.8 661.5322)" cx="732.1" cy="491.1" rx="116.6" ry="116.6"></ellipse><ellipse xmlns="http://www.w3.org/2000/svg" transform="matrix(0.1602 -0.9871 0.9871 0.1602 414.154 1379.5999)" cx="1017.8" cy="446.4" rx="71.9" ry="72"></ellipse><circle xmlns="http://www.w3.org/2000/svg" cx="1303.6" cy="401.8" r="116.6"></circle><rect xmlns="http://www.w3.org/2000/svg" x="160.2" y="892.4" width="0.5" height="0.5"></rect><path xmlns="http://www.w3.org/2000/svg" d="M321.9,732.1c0,88.7-72,160.9-160.7,161.2v-0.5h-0.5v-0.5h-0.5v0.5h0.5v0.5h0.5v0h-0.5C71.8,893.4-0.5,821-0.5,732.1  c0-88.9,72.3-161.2,161.2-161.2S321.9,643.2,321.9,732.1z"></path><polygon xmlns="http://www.w3.org/2000/svg" points="160.7,892.8 160.7,892.4 160.2,892.4 160.2,892.9 160.7,892.9 160.7,893.3 161.2,893.3 161.2,892.8 "></polygon><ellipse xmlns="http://www.w3.org/2000/svg" transform="matrix(0.2298 -0.9732 0.9732 0.2298 -334.3244 1041.8427)" cx="491" cy="732.1" rx="116.6" ry="116.6"></ellipse><ellipse xmlns="http://www.w3.org/2000/svg" transform="matrix(0.1602 -0.9871 0.9871 0.1602 -107.7927 1337.5253)" cx="732.1" cy="732.1" rx="71.9" ry="71.9"></ellipse><ellipse xmlns="http://www.w3.org/2000/svg" transform="matrix(0.7071 -0.7071 0.7071 0.7071 -232.6544 902.6021)" cx="973.2" cy="732.1" rx="116.6" ry="116.6"></ellipse><ellipse xmlns="http://www.w3.org/2000/svg" transform="matrix(0.7071 -0.7071 0.7071 0.7071 -135.9015 1136.2052)" cx="1303.6" cy="732.2" rx="161.2" ry="161.2"></ellipse><circle xmlns="http://www.w3.org/2000/svg" cx="160.7" cy="1062.5" r="116.6"></circle><circle xmlns="http://www.w3.org/2000/svg" cx="446.4" cy="1017.8" r="71.9"></circle><path xmlns="http://www.w3.org/2000/svg" d="M848.7,973.2c0,64.3-52.3,116.5-116.6,116.5c-64.3,0-116.6-52.3-116.6-116.5c0-64.3,52.3-116.6,116.6-116.6  S848.7,908.9,848.7,973.2z"></path><circle xmlns="http://www.w3.org/2000/svg" cx="1017.8" cy="1017.8" r="72"></circle><circle xmlns="http://www.w3.org/2000/svg" cx="1303.6" cy="1062.5" r="116.6"></circle><circle xmlns="http://www.w3.org/2000/svg" cx="160.7" cy="1303.5" r="72"></circle><ellipse xmlns="http://www.w3.org/2000/svg" transform="matrix(0.7071 -0.7071 0.7071 0.7071 -804.0676 665.9094)" cx="401.8" cy="1303.6" rx="116.6" ry="116.6"></ellipse><circle xmlns="http://www.w3.org/2000/svg" cx="732.1" cy="1303.6" r="161.2"></circle><circle xmlns="http://www.w3.org/2000/svg" cx="1062.5" cy="1303.5" r="116.6"></circle><ellipse xmlns="http://www.w3.org/2000/svg" transform="matrix(0.7071 -0.7071 0.7071 0.7071 -539.9423 1303.5642)" cx="1303.6" cy="1303.6" rx="71.9" ry="71.9"></ellipse></g><g id="SvgjsG1008" featureKey="J3GnXt-0" transform="matrix(4.157095446072445,0,0,4.157095446072445,68.05483095598099,5.101889361059708)" fill="#3e8dc8"><path d="M1.791444 6.042781 l2.90107 0 l0 1.84492 l-3.168449 0 l0.548128 0.40107 l0 2.90107 l1.84492 0 l0 1.84492 l-2.393048 0 l0.548128 0.414439 l0 6.590909 l-1.604278 0 l0 -12.673797 c0 -0.748663 0.574866 -1.323529 1.323529 -1.323529 z M4.719251 20.053476 l0 -8.382353 l-0.334225 -0.414439 l3.208556 0 c0.735294 0 1.31016 0.574866 1.31016 1.323529 l0 0.508021 l-3.128342 0 l0.548128 0.414439 l0 6.550802 l-1.604278 0 z M10.347594 13.034759 l0.548128 0.40107 l0 4.719251 l1.818182 0 l0 -5.120321 l-2.36631 0 z M14.318182 12.513369 l0 6.163102 c0 0.708556 -0.614973 1.323529 -1.323529 1.323529 l-2.379679 0 c-0.748663 0 -1.323529 -0.614973 -1.323529 -1.323529 l0 -6.163102 c0 -0.748663 0.574866 -1.323529 1.323529 -1.323529 l2.379679 0 c0.748663 0 1.323529 0.614973 1.323529 1.323529 z M15.120321 19.986631 l0 -8.382353 l-0.334225 -0.414439 l4.037433 0 c0.708556 0 1.323529 0.574866 1.323529 1.323529 l0 7.473262 l-1.604278 0 l0 -6.965241 l-2.36631 0 l0.548128 0.414439 l0 6.550802 l-1.604278 0 z M21.991979 13.074866 l0.548128 0.40107 l0 4.679144 l2.580214 0 l0 1.818182 l-2.860963 0 c-0.735294 0 -1.31016 -0.574866 -1.31016 -1.31016 l0 -10.681818 l1.590909 0 l0 3.262032 l1.804813 0 l0 1.818182 z M28.569519 14.050802 l-2.914439 0 l0 -2.112299 l2.914439 0 l0 2.112299 z M30.240641 13.048128 l0.548128 0.414439 l0 1.417112 l1.818182 0 l0 -1.831551 l-2.36631 0 z M30.508021 11.216578 l2.379679 0 c0.735294 0 1.31016 0.574866 1.31016 1.323529 l0 2.860963 c0 0.748663 -0.574866 1.323529 -1.31016 1.323529 l-2.09893 0 l0 1.457219 l3.409091 0 l0 0.52139 c0 0.735294 -0.574866 1.31016 -1.31016 1.31016 l-2.379679 0 c-0.748663 0 -1.323529 -0.574866 -1.323529 -1.31016 l0 -6.163102 c0 -0.748663 0.574866 -1.323529 1.323529 -1.323529 z M34.879679 19.986631 l0 -8.382353 l-0.334225 -0.414439 l4.037433 0 c0.708556 0 1.323529 0.574866 1.323529 1.323529 l0 7.473262 l-1.604278 0 l0 -6.965241 l-2.36631 0 l0.548128 0.414439 l0 6.550802 l-1.604278 0 z M41.751337 12.994652 l0.548128 0.414439 l0 4.73262 l1.831551 0 l0 -5.147059 l-2.379679 0 z M42.018717 11.149733 l2.112299 0 l0 -4.745989 l-0.334225 -0.414439 l1.938503 0.013369 l0 13.997326 l-3.716578 -0.013369 c-0.748663 0 -1.323529 -0.574866 -1.323529 -1.323529 l0 -6.18984 c0 -0.748663 0.574866 -1.323529 1.323529 -1.323529 z M50.989305 13.008021 l0.548128 0.414439 l0 4.73262 l1.831551 0 l0 -5.147059 l-2.379679 0 z M54.973262 12.486631 l0 6.203209 c0 0.708556 -0.574866 1.323529 -1.323529 1.323529 l-3.729947 0 l0 -13.582888 l-0.334225 -0.414439 l1.951872 0 l0 5.147059 l2.112299 0 c0.748663 0 1.323529 0.574866 1.323529 1.323529 z M55.78877 20.053476 l0 -8.382353 l-0.334225 -0.414439 l3.208556 0 c0.735294 0 1.31016 0.574866 1.31016 1.323529 l0 0.508021 l-3.128342 0 l0.548128 0.414439 l0 6.550802 l-1.604278 0 z M61.938503 19.946524 l-1.57754 0 l0 -8.275401 l-0.334225 -0.40107 l1.911765 0 l0 8.676471 z M61.938503 8.55615 l0 1.804813 l-1.57754 0 l0 -1.804813 l1.57754 0 z M63.756684 13.048128 l0.548128 0.414439 l0 1.417112 l1.818182 0 l0 -1.831551 l-2.36631 0 z M64.024064 11.216578 l2.379679 0 c0.735294 0 1.31016 0.574866 1.31016 1.323529 l0 2.860963 c0 0.748663 -0.574866 1.323529 -1.31016 1.323529 l-2.09893 0 l0 1.457219 l3.409091 0 l0 0.52139 c0 0.735294 -0.574866 1.31016 -1.31016 1.31016 l-2.379679 0 c-0.748663 0 -1.323529 -0.574866 -1.323529 -1.31016 l0 -6.163102 c0 -0.748663 0.574866 -1.323529 1.323529 -1.323529 z M69.73262 6.042781 l2.90107 0 l0 1.84492 l-3.168449 0 l0.548128 0.40107 l0 2.90107 l1.84492 0 l0 1.84492 l-2.393048 0 l0.548128 0.414439 l0 6.590909 l-1.604278 0 l0 -12.673797 c0 -0.748663 0.574866 -1.323529 1.323529 -1.323529 z"></path></g>
			</g>
		</svg>
	